<svg xmlns="http://www.w3.org/2000/svg" width="512" height="512" viewBox="0 0 512 512"><path fill="#D6E5E5" d="M436.8,316.4c-2.5-32.4-6.2-64.7-8.5-97.2c-2.3-32.1-3.6-64.4-4.5-96.6c-0.4-13.5-0.1-27-0.2-40.5c0-6.2-0.2-12.6-1.3-18.7c-0.5-2.6-1-5.1-2-7.6c-0.4-1-0.8-1.9-1.3-2.8c-0.7,0.6-1.6,1-2.8,1.2c-24.3,3.7-49.3,4.9-73.9,5.8c-32.4,1.1-64.9,1.6-97.3,3.8c-16.2,1.1-32.3,2.5-48.5,2.8c-13,0.3-25.9,0.9-38.9,1.8c-8,0.6-16,0.8-24,1.5c-4,0.4-8.1,0.7-12.1,1.5c-1.2,0.2-2.4,0.6-3.5,1c0.1,0.4,0.1,0.9,0,1.3c-0.5,6.8,1.7,13.5,3,20c1.4,7,1.7,14.1,1.9,21.2c0.4,15.1,0.9,30.2,1.3,45.3c0.9,31.2,1,62.4,4.2,93.5c1.6,15.8,3.7,31.6,5.5,47.4c1.7,15.2,1.5,30.7,1.5,45.9c-0.1,30.7-0.2,61.3-0.2,92c2.7,0,5.3,0,8,0c61.7,0.1,123.5,1.2,185.2,1.7c0.8-1.1,2.1-1.8,3.9-1.7c8,0.2,13.4-10,16.7-16c4.2-7.8,7.5-16,11-24.1c2.9-6.7,5.3-14.2,6.8-22h-0.7c-0.2,0-0.5,0-0.7,0c-16.3-0.2-32.7-1-49-1c-8.6,0-17.7-0.4-26.3,1c-8.3,1.3-16,3.7-24.5,2.9c-7.1-0.6-4.9-11.4,2.1-10.8c8.6,0.8,16.9-2.8,25.4-3.4c8.1-0.5,16.2-0.7,24.3-0.7c17,0,34,0.9,51,1c1.3-12.7,0.3-25.6-3.9-36.7c-1.7-4.5,3.4-8.9,7.6-6.7c12.1,6.1,24.1,14.5,37.9,15.8c4.2,0.4,8.5,0.6,12.7,0.3c1.7-0.1,8.2-0.3,9-1.6c1.4-2.4,3.8-3,6-2.6C437.6,328.5,437.2,322.5,436.8,316.4z M222.5,130.2c29.6,0,59.3,1.1,88.9-1.3c7.8-0.6,15.5-1.4,23.3-2.4c5.9-0.8,11.9-2,17.9-2.3c3.4-0.2,6.8-0.5,10.2-1c1.8-0.3,3.7-0.5,5.5-0.9c0.4-0.1,0.8-0.2,1.3-0.3c2.7-2.8,9-1.9,9.8,3.3c1.4,8.5-15,8.9-20,9.4c-12.5,1.3-24.9,3.1-37.3,4.4c-32.8,3.3-65.7,2.2-98.7,2.2C216.3,141.1,215.4,130.2,222.5,130.2z M169.5,136.5c3.7,3.9,6.2,9.1,10,13c1.4-2.7,2.6-5.4,3.7-8.2c5.7-14.3,13.2-27.9,17.3-42.8c1.9-6.8,12.7-4.7,10.8,2.1c-3.3,11.7-8.3,22.5-13.5,33.4c-2.9,6-4.6,12.5-7.6,18.5c-2.7,5.6-7.1,12.4-14.1,8.3c-6.3-3.6-9.1-11.1-13.9-16.2C157.4,139.7,164.7,131.4,169.5,136.5z M181.1,212.8c2.3,5.8,5.7,11.2,9.5,16.3c5.6-12.8,10.5-25.9,15.4-38.9c2.5-6.6,12.3-1.7,9.9,4.9c-5.9,15.8-11.9,31.7-19,47c-1.9,4.1-7,3.7-9.5,0.6c-6.5-7.9-12.8-16.6-16.6-26.3C168.1,209.9,178.5,206.3,181.1,212.8z M186.1,303.8c1.8,5,3.4,10.2,5.4,15.2c6.6-15.2,13-30.6,24.3-43c4.8-5.2,13,2,8.3,7.3c-13.1,14.4-19.1,33.5-27.2,50.8c-1.8,3.8-7.2,4-9.5,0.6c-5.6-8.2-8.2-18-11.6-27.3C173.2,300.8,183.6,297.2,186.1,303.8z M225,362.3c-5.7,5.9-10.3,12.5-14.5,19.4c5,4.3,9.6,8.9,13,14.9c3.5,6.1-5.6,12.3-9.1,6.2c-2.5-4.4-5.8-8.1-9.4-11.4c-4.8,8.5-9.6,17.1-15.5,24.8c-0.2,0.7-0.7,1.5-1.3,2.1c-0.7,0.7-1.3,1.3-2,2c-5,5-13-1.8-8.3-7.3c7.5-8.7,13.1-18.7,18.7-28.7c-4.6-3.6-9.3-7.3-13.2-11.5c-4.8-5.1,2.4-13.5,7.3-8.3c3.5,3.8,7.5,7.1,11.5,10.3c4.3-7,8.9-13.8,14.8-19.8C221.7,350,230,357.2,225,362.3z M232.5,210.2c24.6,0.8,48.8-6.3,73-10c25.9-4,51.8-7.9,78-8c7.1,0,7.9,10.9,0.8,11c-26.8,0.1-53.2,4.4-79.7,8.2c-23.7,3.4-47.1,10.6-71.3,9.8C226.3,220.9,225.4,210,232.5,210.2z M391.3,298.2c-28,3.3-56.4,4.5-84.5,3.9c-12.5-0.3-24.9-0.1-37.4,0.5c-4.5,0.2-9.1,0.3-13.6,0.8c-2.3,0.3-6.9,0.3-8.8,2c-5.2,4.6-13.6-2.6-8.3-7.3c6.7-5.9,16.6-5.9,25.1-6.3c12.2-0.5,24.2-1.1,36.4-0.8c27.8,0.7,55.8-0.1,83.5-3c0.7-0.5,1.7-0.8,2.8-0.8h4C397.5,287.2,398.4,297.3,391.3,298.2z"/><path fill="#BCBCBC" d="M411,349.6c-11.8-0.9-22.1-5.8-32.3-11.1c4.2,22.2-0.8,47-9.2,67c-1.6,3.7-3.1,7.5-4.7,11.2c7.6-7.2,15.6-14,23.4-21.2c8.7-8.1,17.1-16.4,25.7-24.6c7.3-7,14.4-14.3,20.6-22.3c0-0.2,0.1-0.4,0.2-0.6C427.3,350.9,417.7,350.1,411,349.6z"/><path fill="#010101" d="M449.6,345.7c-1.4-29.5-4.4-59-7.1-88.4c-3-32.3-4.6-64.6-6.1-97c-0.8-16.1-1.5-32.2-1.9-48.3c-0.3-12.7,0.4-25.4-0.1-38.1c-0.2-6.1-1-12.2-2.5-18.1c-1.2-4.9-3.5-11.3-8.6-13.1c-2-0.7-3.8-0.3-5.2,0.7c-0.7-0.3-1.6-0.4-2.6-0.2c-25,3.8-50.6,5-75.8,5.8c-33.1,1.1-66.2,1.7-99.3,4c-28.5,2-56.9,2.7-85.4,4.5c-8.4,0.5-16.8,0.8-25.2,1.7c-6.2,0.6-15.9,0.9-20.4,5.9c-0.6,0.6-1.1,1.3-1.4,2.1c-0.6,1.3-0.6,2.5-0.4,3.6c-0.1,0.3-0.1,0.5-0.1,0.8c-0.5,6.7,0.6,12.9,2,19.4c1.6,7.1,2.3,13.9,2.6,21.1c0.6,15.1,0.8,30.1,1.3,45.2c1.1,31.9,1.1,63.7,4.1,95.4c1.5,15.8,3.6,31.6,5.4,47.4c1.8,15.2,1.7,30.7,1.7,46c-0.1,32.3-0.2,64.7-0.2,97c0,2.6,1.4,4.1,3.2,4.6c1,1.4,2.5,2.4,4.7,2.4c66.2,0,132.3,1.2,198.5,1.7c6,0.1,12.1,0.1,18.1,0.1v-1c0.7-0.4,1.4-1.1,1.9-1.9c11.9-18.8,30.5-32.5,46.6-47.4c8.3-7.7,16.3-15.7,24.5-23.5c8.7-8.3,17.1-17,24.1-26.9c1.4-1.9,1.5-4,0.8-5.6H449.6z M434.3,348.6c-6.3,8-13.3,15.2-20.6,22.3c-8.5,8.2-17,16.6-25.7,24.6c-7.7,7.1-15.7,14-23.4,21.2c1.6-3.7,3.2-7.5,4.7-11.2c8.4-20,13.4-44.8,9.2-67c10.2,5.4,20.5,10.2,32.3,11.1c6.7,0.5,16.3,1.3,23.5-1.6C434.4,348.2,434.3,348.4,434.3,348.6z M432,337.2c-0.8,1.3-7.3,1.5-9,1.6c-4.2,0.3-8.5,0.1-12.7-0.3c-13.8-1.3-25.8-9.7-37.9-15.8c-4.2-2.1-9.4,2.2-7.6,6.7c4.3,11.1,5.2,24,3.9,36.7c-17-0.1-34-1-51-1c-8.1,0-16.2,0.1-24.3,0.7c-8.5,0.6-16.8,4.2-25.4,3.4c-7-0.6-9.2,10.2-2.1,10.8c8.5,0.8,16.2-1.6,24.5-2.9c8.5-1.4,17.7-1,26.3-1c16.4-0.1,32.7,0.8,49,1c0.2,0,0.5,0,0.7,0h0.7c-1.6,7.8-3.9,15.3-6.8,22c-3.5,8.1-6.8,16.3-11,24.1c-3.3,6-8.7,16.2-16.7,16c-1.8,0-3.1,0.7-3.9,1.7c-61.7-0.5-123.5-1.6-185.2-1.7c-2.7,0-5.3,0-8,0c0-30.7,0.1-61.3,0.2-92c0.1-15.2,0.2-30.7-1.5-45.9c-1.8-15.8-3.9-31.6-5.5-47.4c-3.2-31.1-3.4-62.3-4.2-93.5c-0.4-15.1-0.9-30.2-1.3-45.3c-0.2-7.1-0.5-14.2-1.9-21.2c-1.3-6.5-3.5-13.3-3-20c0-0.5,0-0.9,0-1.3c1.1-0.4,2.3-0.7,3.5-1c4-0.8,8-1.2,12.1-1.5c8-0.7,16-0.9,24-1.5c13-0.9,25.9-1.5,38.9-1.8c16.2-0.4,32.3-1.7,48.5-2.8c32.4-2.2,64.8-2.7,97.3-3.8c24.5-0.8,49.6-2.1,73.9-5.8c1.1-0.2,2-0.6,2.8-1.2c0.5,0.9,0.9,1.9,1.3,2.8c1,2.4,1.6,5,2,7.6c1.1,6.2,1.2,12.5,1.3,18.7c0.1,13.5-0.2,27,0.2,40.5c0.9,32.2,2.2,64.5,4.5,96.6c2.3,32.4,6,64.8,8.5,97.2c0.5,6,0.9,12.1,1.2,18.2C435.8,334.2,433.4,334.9,432,337.2z"/><path fill="#010101" d="M200.5 98.6c-4.2 14.8-11.7 28.5-17.3 42.8-1.1 2.8-2.3 5.5-3.7 8.2-3.8-3.9-6.3-9.1-10-13-4.9-5.2-12.1 3.2-7.3 8.3 4.8 5.1 7.6 12.6 13.9 16.2 7.1 4 11.4-2.8 14.1-8.3 2.9-6 4.7-12.5 7.6-18.5 5.2-10.9 10.2-21.7 13.5-33.4C213.2 93.9 202.4 91.8 200.5 98.6zM379.4 125.2c-.8-5.2-7.1-6.1-9.8-3.3-.4.1-.8.2-1.3.3-1.8.4-3.7.6-5.5.9-3.4.5-6.8.8-10.2 1-5.9.3-12 1.6-17.9 2.3-7.7 1-15.5 1.8-23.3 2.4-29.6 2.4-59.3 1.3-88.9 1.3-7.1 0-6.2 11 .8 11 32.9 0 65.8 1.1 98.7-2.2 12.5-1.2 24.9-3.1 37.3-4.4C364.4 134.1 380.8 133.8 379.4 125.2zM206 190.2c-4.9 13.1-9.8 26.1-15.4 38.9-3.8-5.1-7.2-10.5-9.5-16.3-2.6-6.6-13-3-10.4 3.6 3.8 9.6 10.1 18.3 16.6 26.3 2.5 3 7.6 3.4 9.5-.6 7.1-15.3 13.1-31.2 19-47C218.3 188.5 208.5 183.6 206 190.2zM383.5 192.2c-26.2.1-52.1 4-78 8-24.2 3.7-48.4 10.8-73 10-7.1-.2-6.2 10.7.8 11 24.2.8 47.6-6.3 71.3-9.8 26.5-3.8 52.9-8.1 79.7-8.2C391.4 203.1 390.5 192.2 383.5 192.2zM215.8 276c-11.2 12.4-17.6 27.8-24.3 43-2-5-3.6-10.2-5.4-15.2-2.4-6.6-12.8-3-10.4 3.6 3.4 9.3 6 19 11.6 27.3 2.3 3.4 7.7 3.2 9.5-.6 8.1-17.3 14.2-36.4 27.2-50.8C228.8 278 220.5 270.8 215.8 276zM390.5 287.2h-4c-1.1 0-2.1.3-2.8.8-27.7 2.9-55.6 3.7-83.5 3-12.2-.3-24.2.3-36.4.8-8.5.4-18.4.4-25.1 6.3-5.3 4.7 3 11.9 8.3 7.3 1.9-1.7 6.4-1.7 8.8-2 4.5-.5 9.1-.6 13.6-.8 12.5-.6 24.8-.8 37.4-.5 28.2.6 56.5-.6 84.5-3.9C398.4 297.3 397.5 287.2 390.5 287.2zM216.8 355c-5.8 6-10.5 12.7-14.8 19.8-4-3.2-8-6.5-11.5-10.3-4.8-5.2-12 3.1-7.3 8.3 4 4.3 8.6 7.9 13.2 11.5-5.7 10-11.2 20-18.7 28.7-4.7 5.4 3.3 12.2 8.3 7.3.7-.7 1.3-1.3 2-2 .7-.7 1.1-1.4 1.3-2.1 5.9-7.7 10.7-16.3 15.5-24.8 3.6 3.3 6.9 7 9.4 11.4 3.5 6.2 12.6 0 9.1-6.2-3.3-5.9-8-10.6-13-14.9 4.2-6.9 8.8-13.6 14.5-19.4C230 357.2 221.7 350 216.8 355z"/></svg>