<svg xmlns="http://www.w3.org/2000/svg" viewBox="0 0 48 48"><path fill="#74cccf" d="M16.952,45.512c0.081-2.654-0.102-5.302,0.028-7.959c0.056-1.134-0.19-2.843,0.376-3.875 c-0.798,1.699-3.91,7.592-6.464,6.654c-1.47-0.54-2.333-3.029-3.05-4.308c-0.645-1.15-0.808-2.405-1.458-3.472 c0.942-0.645,2.196-0.9,3.038-1.67c1.29,0.924,1.263,3.26,2.497,3.969c0.575-0.463,0.741-1.198,1.127-1.779 c0.384-0.578,0.978-0.985,1.451-1.467c0.77-0.784,1.598-1.954,2.544-2.494c1.905-1.087,5.748-1.122,7.972-1.009 c2.536,0.129,3.363,1.126,4.82,3.036c1.145,1.501,2.453,2.619,3.407,4.219c1.454-1.035,2.734-2.927,3.583-4.49 c0.966,1.021,1.564,1.874,2.761,2.63c-0.755,0.775-1.642,2.331-2.741,3.181c-0.96,0.742-2.094,1.667-3.229,2.021 c-2.051,0.641-2.921-0.42-4.169-1.765c-0.802-0.864-1.993-1.346-2.526-2.254c-0.109,1.932,0.027,3.564-0.213,5.532 c-0.216,1.775,0.128,3.796,0.128,5.613L16.952,45.512z"/><path fill="#010101" d="M26.834,46.327c-0.005,0-0.011,0-0.016,0l-9.883-0.315c-0.276-0.009-0.492-0.239-0.484-0.516 c0.037-1.203,0.019-2.431,0.001-3.618c-0.021-1.422-0.043-2.893,0.028-4.35c0.014-0.292,0.007-0.623,0.001-0.971 c-0.002-0.059-0.003-0.117-0.004-0.177c-1.403,2.332-3.636,5.195-5.757,4.421c-1.335-0.49-2.161-2.195-2.825-3.564 c-0.174-0.358-0.335-0.692-0.489-0.968c-0.335-0.597-0.543-1.205-0.744-1.793c-0.205-0.597-0.397-1.159-0.705-1.663 c-0.139-0.228-0.075-0.523,0.145-0.674c0.443-0.303,0.936-0.521,1.411-0.732c0.593-0.263,1.152-0.511,1.571-0.895 c0.175-0.16,0.438-0.175,0.629-0.037c0.761,0.545,1.12,1.463,1.438,2.272c0.218,0.555,0.426,1.086,0.724,1.424 c0.141-0.195,0.253-0.426,0.368-0.665c0.119-0.244,0.239-0.488,0.387-0.711c0.29-0.438,0.665-0.77,1.027-1.092 c0.166-0.147,0.332-0.294,0.484-0.449c0.22-0.224,0.444-0.48,0.676-0.744c0.607-0.693,1.236-1.41,1.977-1.833 c2.17-1.238,6.49-1.163,8.246-1.073c2.711,0.138,3.645,1.203,5.192,3.231c0.437,0.572,0.908,1.1,1.364,1.609 c0.606,0.678,1.229,1.375,1.772,2.181c1.351-1.146,2.452-2.958,3.017-3.996c0.076-0.142,0.216-0.237,0.375-0.258 c0.157-0.021,0.318,0.036,0.428,0.152c0.234,0.248,0.447,0.486,0.652,0.716c0.622,0.696,1.16,1.298,2.011,1.835 c0.128,0.081,0.212,0.214,0.229,0.364c0.019,0.149-0.032,0.299-0.138,0.407c-0.264,0.271-0.562,0.668-0.877,1.088 c-0.554,0.736-1.181,1.571-1.917,2.141l-0.229,0.178c-0.949,0.736-2.024,1.571-3.156,1.926c-2.272,0.706-3.372-0.482-4.537-1.742 l-0.147-0.16c-0.308-0.33-0.699-0.615-1.078-0.891c-0.21-0.152-0.422-0.307-0.625-0.472c-0.005,0.321-0.008,0.637-0.01,0.951 c-0.008,1.075-0.016,2.188-0.164,3.41c-0.128,1.057-0.047,2.245,0.032,3.395c0.049,0.715,0.1,1.453,0.1,2.157 c0,0.136-0.055,0.265-0.152,0.359C27.089,46.277,26.964,46.327,26.834,46.327z M17.463,45.028l8.862,0.283 c-0.016-0.507-0.052-1.028-0.089-1.572c-0.082-1.196-0.167-2.433-0.026-3.584c0.142-1.166,0.148-2.2,0.156-3.296 c0.005-0.714,0.011-1.436,0.054-2.204c0.012-0.22,0.167-0.405,0.381-0.458c0.219-0.048,0.438,0.044,0.549,0.233 c0.255,0.433,0.732,0.779,1.239,1.147c0.418,0.303,0.85,0.617,1.223,1.02l0.149,0.16c1.146,1.239,1.842,1.988,3.504,1.467 c0.96-0.3,1.959-1.076,2.842-1.761l0.23-0.179c0.63-0.486,1.214-1.264,1.729-1.95c0.196-0.261,0.387-0.514,0.571-0.742 c-0.704-0.523-1.211-1.091-1.742-1.686c-0.058-0.063-0.115-0.128-0.174-0.193c-0.735,1.255-1.94,3.021-3.39,4.053 c-0.113,0.08-0.255,0.109-0.393,0.082c-0.137-0.028-0.255-0.113-0.327-0.233c-0.556-0.932-1.238-1.694-1.961-2.502 c-0.469-0.524-0.954-1.066-1.414-1.669c-1.476-1.935-2.165-2.725-4.448-2.841c-1.299-0.063-5.704-0.194-7.699,0.944 c-0.595,0.34-1.167,0.992-1.721,1.623c-0.244,0.278-0.482,0.549-0.715,0.786c-0.168,0.171-0.35,0.333-0.533,0.496 c-0.329,0.292-0.64,0.568-0.857,0.896c-0.124,0.187-0.222,0.391-0.32,0.595c-0.211,0.435-0.45,0.927-0.91,1.298 c-0.16,0.13-0.385,0.147-0.563,0.044c-0.773-0.444-1.118-1.323-1.451-2.173c-0.236-0.604-0.462-1.18-0.814-1.575 c-0.462,0.33-0.98,0.561-1.485,0.784c-0.305,0.135-0.597,0.265-0.867,0.411c0.229,0.466,0.395,0.949,0.556,1.42 c0.196,0.571,0.381,1.11,0.671,1.628c0.163,0.29,0.334,0.643,0.518,1.021c0.585,1.208,1.313,2.711,2.269,3.062 c1.741,0.644,4.326-3.258,5.729-6.167c0.037-0.089,0.078-0.175,0.124-0.258c0.131-0.238,0.428-0.325,0.665-0.205 c0.241,0.122,0.341,0.413,0.226,0.658c-0.028,0.061-0.062,0.131-0.101,0.212c-0.261,0.646-0.243,1.593-0.228,2.437 c0.008,0.372,0.014,0.726-0.002,1.038c-0.069,1.426-0.048,2.88-0.026,4.286C17.468,42.9,17.483,43.966,17.463,45.028z"/><path fill="#fcbf95" d="M9.346,30.869c-0.318-0.435-0.896-1.091-1.343-1.206c-0.595-0.153-1.465-0.117-2.077-0.134 c-0.53-0.015-1.075-0.026-1.605-0.001c-0.539,0.025-1.216-0.229-1.721-0.038c-0.141,0.625,0.794,1.306,1.287,1.428 c0.66,0.162,1.199,0.538,1.869,0.756c0.528,0.172,1.021,0.29,1.576,0.199C8.108,31.743,8.603,31.227,9.346,30.869z"/><path fill="#010101" d="M6.942,32.404c-0.502,0-0.948-0.128-1.34-0.255c-0.321-0.104-0.615-0.242-0.903-0.378 c-0.316-0.149-0.615-0.291-0.933-0.369c-0.678-0.167-1.876-1.032-1.654-2.022c0.037-0.164,0.154-0.299,0.312-0.358 c0.43-0.162,0.894-0.1,1.305-0.042c0.196,0.026,0.39,0.059,0.569,0.049c0.543-0.025,1.101-0.014,1.644,0.001l0.429,0.006 c0.579,0.004,1.235,0.009,1.758,0.144c0.667,0.173,1.355,1.033,1.621,1.395c0.088,0.12,0.118,0.272,0.082,0.417 c-0.036,0.144-0.134,0.265-0.268,0.329C9.316,31.438,9.1,31.577,8.889,31.71c-0.431,0.273-0.876,0.556-1.476,0.654 C7.251,32.392,7.094,32.404,6.942,32.404z M3.252,29.927c0.19,0.215,0.509,0.443,0.754,0.504c0.414,0.102,0.773,0.271,1.12,0.436 c0.252,0.118,0.506,0.24,0.786,0.331c0.506,0.164,0.908,0.25,1.338,0.181c0.399-0.065,0.726-0.272,1.104-0.513 c0.075-0.048,0.151-0.096,0.229-0.144c-0.297-0.328-0.566-0.54-0.705-0.575c-0.403-0.104-0.994-0.108-1.516-0.112l-0.449-0.006 c-0.521-0.016-1.053-0.026-1.568-0.003c-0.247,0.014-0.506-0.022-0.753-0.057C3.478,29.953,3.361,29.938,3.252,29.927z"/><path fill="#fcbf95" d="M37.495,31.204c0.351-0.21,0.494-0.657,0.892-0.858c0.517-0.262,0.97-0.304,1.521-0.395 c0.759-0.125,1.462-0.191,2.23-0.229c0.346-0.017,1.064-0.275,1.39-0.146c1.022,0.403-0.914,1.392-1.267,1.52 c-1.016,0.366-1.96,0.788-2.865,1.376c-0.539,0.35-0.517,0.406-1.005-0.047C38.084,32.141,37.754,31.767,37.495,31.204z"/><path fill="#010101" d="M38.855,33.249c-0.256,0-0.481-0.158-0.806-0.459c-0.28-0.259-0.688-0.684-1.009-1.378 c-0.107-0.231-0.021-0.508,0.198-0.639c0.085-0.051,0.17-0.158,0.268-0.282c0.153-0.193,0.345-0.436,0.653-0.592 c0.517-0.263,0.97-0.333,1.448-0.408l0.219-0.034c0.728-0.12,1.433-0.192,2.286-0.234c0.1-0.006,0.236-0.038,0.384-0.069 c0.423-0.089,0.862-0.183,1.214-0.043c0.559,0.22,0.613,0.622,0.611,0.784c-0.013,0.933-1.873,1.663-1.892,1.67 c-1.104,0.397-1.982,0.818-2.763,1.325l-0.121,0.079C39.262,33.159,39.05,33.249,38.855,33.249z M38.121,31.32 c0.203,0.339,0.426,0.568,0.608,0.737c0.04,0.038,0.106,0.1,0.163,0.147c0.03-0.02,0.063-0.043,0.104-0.069l0.127-0.083 c0.847-0.55,1.79-1.004,2.969-1.428c0.227-0.082,0.692-0.339,0.987-0.561c-0.135,0.018-0.276,0.048-0.374,0.068 c-0.208,0.044-0.401,0.082-0.542,0.089c-0.814,0.041-1.484,0.109-2.174,0.223l-0.227,0.036c-0.433,0.067-0.775,0.121-1.15,0.312 c-0.112,0.057-0.209,0.18-0.32,0.32C38.238,31.179,38.183,31.249,38.121,31.32z"/><path fill="#fcbf95" d="M20.261,21.574c-0.383,0.935-0.681,1.669-0.67,2.581c0.008,0.663,0.164,1.219,0.396,1.837 c0.305,0.811,0.55,1.765,1.147,2.417c1.343,1.467,3.119,0.339,4.287-0.711c0.81-0.728,1.2-1.866,1.35-2.888 c0.12-0.817,0.357-1.795-0.092-2.531c-0.853-1.395-1.978-1.829-3.605-1.827C21.674,20.454,21.027,20.593,20.261,21.574z"/><path fill="#010101" d="M22.628,29.606c-0.88,0-1.492-0.452-1.864-0.858c-0.549-0.601-0.828-1.398-1.074-2.102 c-0.057-0.162-0.112-0.322-0.171-0.478c-0.217-0.575-0.418-1.218-0.428-2.007c-0.013-1.019,0.32-1.833,0.707-2.777 c0.018-0.042,0.041-0.082,0.068-0.118c0.882-1.129,1.667-1.313,3.205-1.314c0.003,0,0.006,0,0.009,0 c1.936,0,3.14,0.618,4.024,2.066c0.49,0.803,0.333,1.778,0.207,2.562l-0.047,0.303c-0.141,0.96-0.517,2.293-1.511,3.188 C24.472,29.223,23.437,29.606,22.628,29.606z M20.696,21.829c-0.359,0.878-0.615,1.524-0.605,2.32c0.007,0.6,0.15,1.1,0.363,1.667 c0.062,0.161,0.12,0.329,0.18,0.499c0.225,0.643,0.457,1.307,0.868,1.756c0.824,0.901,2.029,0.652,3.584-0.745 c0.812-0.73,1.094-1.936,1.188-2.588l0.05-0.316c0.11-0.686,0.225-1.394-0.073-1.881c-0.697-1.142-1.587-1.588-3.171-1.588 c-0.002,0-0.005,0-0.008,0C21.769,20.954,21.309,21.065,20.696,21.829z"/><g><path fill="#febf10" d="M32.567,2.958c-2.244,0.006-4.933,1.641-6.104,3.797c-0.902,1.66-1.181,4.384-0.656,6.223 c0.539,1.885,1.567,3.357,3.114,4.384c1.219,0.809,2.649,1.374,4.001,1.661c0.133,1.306,0.064,1.36-0.018,2.193 c-0.071,0.713-0.628,1.625-1.045,2.179c-0.368,0.49-0.917,0.687-1.383,1.109c3.8,0.243,5.755-1.5,6.152-5.125 c0.979-0.116,4.24-0.649,5.124-0.972c1.756-0.64,2.218-2.008,3.351-3.563c1.545-2.12,1.772-5.722,0.558-8.041 c-1.284-2.452-3.41-3.618-6.327-4.125c-1.942-0.338-1.484-0.054-3.469-0.001C34.783,2.706,33.58,2.973,32.567,2.958z"/><path fill="#010101" d="M31.146,25.026c-0.229,0-0.462-0.008-0.702-0.023c-0.2-0.013-0.373-0.144-0.439-0.333 s-0.013-0.4,0.136-0.536c0.208-0.188,0.43-0.337,0.648-0.482c0.271-0.179,0.503-0.333,0.671-0.556 c0.401-0.535,0.891-1.36,0.946-1.928l0.044-0.393c0.048-0.421,0.072-0.627,0.009-1.345c-1.357-0.333-2.699-0.913-3.813-1.651 c-1.625-1.078-2.741-2.647-3.317-4.663c-0.567-1.986-0.269-4.823,0.696-6.599c1.253-2.307,4.065-4.051,6.543-4.058h0.001 c0.028-0.002,0.057,0,0.085,0c0.49,0,1.032-0.066,1.604-0.136c0.527-0.064,1.071-0.131,1.596-0.146 c0.708-0.019,1.088-0.067,1.394-0.106c0.605-0.076,0.926-0.102,2.176,0.114c3.294,0.573,5.417,1.967,6.684,4.386 c1.301,2.486,1.033,6.33-0.598,8.568c-0.264,0.361-0.49,0.713-0.705,1.046c-0.712,1.104-1.384,2.146-2.88,2.691 c-0.866,0.316-3.615,0.774-4.847,0.947C36.572,23.279,34.58,25.026,31.146,25.026z M32.565,3.458 c-2.104,0.008-4.59,1.56-5.663,3.536c-0.84,1.545-1.109,4.114-0.614,5.847c0.51,1.781,1.488,3.162,2.909,4.104 c1.11,0.736,2.47,1.3,3.828,1.588c0.213,0.045,0.372,0.223,0.394,0.438c0.11,1.083,0.089,1.354,0.023,1.917L33.4,21.265 c-0.093,0.945-0.83,2.014-1.143,2.43c-0.08,0.107-0.166,0.202-0.256,0.288c2.49-0.267,3.813-1.775,4.129-4.659 c0.025-0.231,0.207-0.415,0.438-0.442c1.038-0.123,4.199-0.649,5.011-0.945c1.18-0.43,1.684-1.212,2.381-2.293 c0.226-0.349,0.462-0.716,0.737-1.094c1.429-1.961,1.662-5.333,0.52-7.515c-1.125-2.15-2.966-3.342-5.969-3.865 c-1.15-0.199-1.379-0.171-1.878-0.107c-0.31,0.04-0.735,0.094-1.492,0.114c-0.478,0.013-0.998,0.076-1.502,0.138 C33.771,3.39,33.145,3.472,32.565,3.458z"/></g><g><path fill="#ed2224" d="M33.781,8.071c-0.13-0.662,0.523-2.448,2.027-2.743c1.15-0.225,2.444-0.261,3.244,0.699 c0.659,0.791,0.768,2.089,0.457,3.009c-0.272,0.804-0.723,1.305-1.341,1.788c-0.479,0.375-1.308,0.703-1.523,1.288 c-0.16,0.436-0.145,1.228-0.158,1.689c-0.703,0.056-1.279,0.105-1.789,0.064c-0.052-0.64-0.087-1.033-0.105-1.279 c-0.058-0.778,0.534-1.894,1.19-2.277c0.53-0.309,0.789-0.703,1.233-1.127c0.383-0.365,0.673-1.022,0.504-1.539 c-0.11-0.337-0.576-0.61-0.927-0.607c-0.56,0.004-1.138,0.736-1.06,1.194C35.146,8.293,34.195,8.175,33.781,8.071z"/><path fill="#010101" d="M35.102,14.381c-0.153,0-0.3-0.005-0.442-0.016c-0.244-0.02-0.438-0.213-0.458-0.458l-0.106-1.283 c-0.07-0.958,0.614-2.267,1.438-2.747c0.302-0.176,0.499-0.386,0.747-0.653c0.122-0.13,0.248-0.265,0.393-0.404 c0.261-0.249,0.474-0.719,0.374-1.023c-0.033-0.101-0.282-0.262-0.446-0.262h-0.001c-0.085,0-0.235,0.073-0.379,0.234 c-0.159,0.18-0.196,0.339-0.192,0.377c0.029,0.265-0.15,0.534-0.414,0.577c-0.505,0.08-1.555-0.069-1.953-0.167 c-0.188-0.047-0.332-0.199-0.369-0.389c-0.097-0.493,0.084-1.223,0.461-1.86c0.469-0.792,1.165-1.314,1.961-1.47 c0.636-0.125,2.58-0.505,3.724,0.87c0.845,1.012,0.876,2.518,0.547,3.489c-0.341,1.01-0.953,1.589-1.506,2.021 c-0.153,0.12-0.339,0.236-0.531,0.356c-0.346,0.215-0.738,0.458-0.831,0.711c-0.106,0.29-0.117,0.893-0.123,1.291l-0.005,0.239 c-0.007,0.255-0.206,0.464-0.461,0.485C35.976,14.344,35.516,14.381,35.102,14.381z M36.599,6.536c0.526,0,1.211,0.38,1.398,0.952 c0.248,0.761-0.155,1.599-0.635,2.057c-0.13,0.124-0.242,0.246-0.352,0.363c-0.269,0.287-0.546,0.584-0.975,0.834 c-0.492,0.287-0.986,1.233-0.943,1.808l0.067,0.831c0.253-0.002,0.528-0.019,0.836-0.042c0.011-0.475,0.038-1.011,0.18-1.398 c0.212-0.576,0.76-0.916,1.243-1.216c0.159-0.099,0.314-0.194,0.442-0.294c0.53-0.415,0.933-0.838,1.175-1.554 c0.244-0.72,0.198-1.851-0.367-2.528c-0.522-0.626-1.397-0.794-2.765-0.529c-0.655,0.128-1.064,0.613-1.292,0.998 c-0.182,0.308-0.282,0.614-0.324,0.844c0.262,0.041,0.565,0.073,0.809,0.084c0.066-0.203,0.181-0.406,0.337-0.593 c0.325-0.388,0.747-0.612,1.157-0.615C36.594,6.536,36.596,6.536,36.599,6.536z"/></g><g><path fill="#ed2224" d="M35.122,15.545c-0.556,0.045-0.841,1.204-0.526,1.599c0.222,0.278,0.648,0.365,0.998,0.363 c0.388-0.002,0.839-0.038,1.07-0.729c0.056-0.168,0.018-0.58-0.266-0.853C35.999,15.54,35.719,15.283,35.122,15.545z"/><path fill="#010101" d="M35.582,18.007c-0.596,0-1.097-0.2-1.377-0.551c-0.342-0.428-0.275-1.14-0.068-1.62 c0.187-0.432,0.493-0.71,0.85-0.777c0.876-0.351,1.364,0.124,1.759,0.506c0.416,0.402,0.513,1.006,0.393,1.37 c-0.355,1.064-1.186,1.069-1.541,1.072C35.592,18.007,35.587,18.007,35.582,18.007z M35.181,16.042 c-0.036,0.026-0.117,0.131-0.172,0.321c-0.067,0.235-0.044,0.429-0.018,0.477c0.08,0.099,0.336,0.167,0.6,0.168 c0.334-0.002,0.475-0.018,0.598-0.387c0.002-0.024-0.013-0.214-0.139-0.336c-0.397-0.384-0.454-0.402-0.728-0.281 C35.276,16.023,35.229,16.036,35.181,16.042z M35.121,15.545h0.01H35.121z"/></g></svg>