<svg xmlns="http://www.w3.org/2000/svg" viewBox="0 0 100 100"><circle cx="77" cy="13" r="1" fill="#f1bc19"/><circle cx="50" cy="50" r="37" fill="#e6edb7"/><circle cx="83" cy="15" r="4" fill="#f1bc19"/><circle cx="87" cy="24" r="2" fill="#88ae45"/><circle cx="81" cy="76" r="2" fill="#fbcd59"/><circle cx="15" cy="63" r="4" fill="#fbcd59"/><circle cx="25" cy="87" r="2" fill="#88ae45"/><circle cx="18.5" cy="51.5" r="2.5" fill="#fff"/><circle cx="79.5" cy="33.5" r="1.5" fill="#fff"/><g><path fill="#fed5b3" d="M38,74v-7c0-2.375-0.718-7.138-4-11c-3.238-3.81-6-10-5-15s4-18,17-19s22,2,26,13 c0.962,2.878-0.042,4.042-0.583,5.042l5.292,8.333c0.667,0.875,1.083,3.375-0.583,3.833C74.116,52.761,72,53,72,53l0.833,9.125 C73.042,65.083,72.208,67.833,69,68c-2.996,0.156-8,0-8,0v10"/><path fill="#472b29" d="M61,78.7c-0.387,0-0.7-0.313-0.7-0.7V68c0-0.189,0.077-0.371,0.213-0.503 c0.136-0.132,0.326-0.204,0.509-0.197c0.05,0.002,5.009,0.153,7.942,0.001c0.973-0.051,1.7-0.363,2.225-0.956 c0.95-1.074,1.039-2.861,0.946-4.171l-0.832-9.111c-0.034-0.379,0.24-0.716,0.618-0.759c0.021-0.002,2.089-0.241,4.019-0.771 c0.287-0.079,0.461-0.251,0.564-0.558c0.241-0.714-0.053-1.783-0.353-2.176l-5.325-8.383c-0.136-0.214-0.146-0.485-0.024-0.708 c0.063-0.117,0.132-0.235,0.203-0.358c0.509-0.876,1.087-1.869,0.331-4.129c-3.538-9.729-11.337-13.596-25.282-12.524 C33.176,23.689,30.55,36.822,29.687,41.137c-0.969,4.843,1.833,10.864,4.847,14.409C37.605,59.162,38.7,63.833,38.7,67v7 c0,0.387-0.313,0.7-0.7,0.7s-0.7-0.313-0.7-0.7v-7c0-1.008-0.185-6.253-3.833-10.547c-3.333-3.921-6.219-10.263-5.153-15.591 c2.454-12.268,8.387-18.849,17.633-19.561c14.675-1.128,22.917,3.021,26.712,13.459c0.951,2.846,0.135,4.299-0.425,5.261L77.299,48 c0.545,0.711,0.927,2.255,0.531,3.424c-0.25,0.741-0.79,1.259-1.52,1.46c-1.361,0.374-2.752,0.606-3.553,0.722l0.772,8.456 c0.161,2.276-0.287,4.073-1.293,5.211c-0.775,0.876-1.853,1.356-3.201,1.426c-2.344,0.122-5.834,0.057-7.336,0.02V78 C61.7,78.387,61.387,78.7,61,78.7z"/></g><g><path fill="#fed5b3" d="M53.751,65.53c1.229,0.659,2.847,1.306,4.833,1.637"/><path fill="#472b29" d="M58.584,67.667c-0.027,0-0.056-0.002-0.083-0.007c-1.77-0.295-3.447-0.863-4.986-1.689 c-0.243-0.131-0.335-0.434-0.204-0.677c0.13-0.244,0.434-0.334,0.677-0.204c1.443,0.774,3.017,1.307,4.678,1.584 c0.272,0.045,0.457,0.303,0.411,0.575C59.035,67.493,58.823,67.667,58.584,67.667z"/></g><g><path fill="#fed5b3" d="M50.917,63.5c0,0,0.375,0.398,1.107,0.94"/><path fill="#472b29" d="M52.024,64.94c-0.104,0-0.208-0.032-0.298-0.098c-0.759-0.562-1.157-0.982-1.174-1 c-0.188-0.201-0.18-0.517,0.021-0.706c0.2-0.19,0.516-0.18,0.706,0.02c0.004,0.004,0.361,0.378,1.042,0.882 c0.222,0.164,0.269,0.477,0.104,0.699C52.328,64.87,52.177,64.94,52.024,64.94z"/></g><g><path fill="#afabd4" d="M42.026,54.677c-0.512-0.154-1.008-0.356-1.484-0.605c0.267-1.056-0.008-2.034-0.798-2.802 c-0.571-0.556-1.235-0.838-1.973-0.838c-0.262,0-0.53,0.037-0.805,0.11c-0.254-0.471-0.461-0.96-0.62-1.464 c0.962-0.565,1.47-1.466,1.444-2.589c-0.026-1.075-0.546-1.929-1.479-2.458c0.151-0.506,0.351-0.997,0.596-1.468 c0.284,0.079,0.564,0.119,0.836,0.119c0.758,0,1.437-0.299,2.017-0.889c0.776-0.79,1.023-1.78,0.722-2.838 c0.462-0.247,0.951-0.451,1.463-0.611c0.546,0.966,1.422,1.49,2.518,1.49c0.087,0,0.178-0.003,0.27-0.01 c1.014-0.075,1.814-0.598,2.306-1.491c0.504,0.154,0.993,0.357,1.464,0.605c-0.298,1.074-0.039,2.071,0.756,2.856 c0.576,0.569,1.246,0.858,1.99,0.858c0.277,0,0.563-0.042,0.853-0.125c0.205,0.404,0.457,1.008,0.601,1.461 c-0.986,0.562-1.492,1.451-1.469,2.6c0.017,0.78,0.298,1.789,1.452,2.453c-0.157,0.506-0.362,0.997-0.613,1.468 c-0.272-0.07-0.539-0.105-0.797-0.105c-0.827,0-1.577,0.365-2.17,1.055c-0.643,0.75-0.843,1.638-0.591,2.597 c-0.473,0.25-0.967,0.454-1.478,0.612c-0.535-0.902-1.45-1.427-2.529-1.427C43.47,53.25,42.555,53.8,42.026,54.677z"/><path fill="#472b29" d="M47.329,39.171c0.129,0.049,0.256,0.102,0.382,0.158c-0.136,1.103,0.223,2.14,1.055,2.96 c0.702,0.693,1.56,1.06,2.481,1.06c0.15,0,0.3-0.01,0.452-0.029c0.055,0.127,0.109,0.259,0.159,0.388 c-0.888,0.694-1.351,1.688-1.326,2.892c0.024,1.124,0.482,2.056,1.316,2.715c-0.053,0.138-0.11,0.274-0.171,0.409 c-0.136-0.015-0.27-0.022-0.403-0.022c-1.038,0-1.972,0.449-2.701,1.298c-0.663,0.772-0.948,1.688-0.842,2.656 c-0.142,0.063-0.285,0.123-0.43,0.178c-0.684-0.819-1.691-1.296-2.842-1.296c0,0-0.001,0-0.001,0 c-1.059,0.013-2.032,0.503-2.701,1.312c-0.147-0.055-0.292-0.114-0.436-0.177c0.109-1.084-0.263-2.101-1.089-2.905 c-0.697-0.677-1.548-1.036-2.461-1.036c-0.137,0-0.276,0.008-0.415,0.024c-0.062-0.135-0.119-0.271-0.173-0.408 c0.87-0.7,1.335-1.701,1.307-2.877c-0.027-1.119-0.504-2.065-1.345-2.723c0.05-0.133,0.103-0.265,0.16-0.395 c0.148,0.018,0.294,0.027,0.439,0.027c0.94,0,1.81-0.379,2.516-1.097c0.81-0.824,1.156-1.853,1.015-2.94 c0.128-0.058,0.257-0.112,0.389-0.163c0.678,0.872,1.651,1.352,2.798,1.352c0.104,0,0.211-0.004,0.321-0.012 C45.847,40.442,46.719,39.973,47.329,39.171 M46.641,37.5c-0.328,0.954-0.964,1.551-1.96,1.625 c-0.074,0.005-0.147,0.008-0.218,0.008c-1.058,0-1.754-0.601-2.134-1.624c-0.969,0.237-1.872,0.612-2.71,1.137 c0.461,0.974,0.402,1.884-0.357,2.655c-0.458,0.466-0.97,0.679-1.518,0.679c-0.37,0-0.756-0.097-1.154-0.28 c-0.514,0.845-0.883,1.75-1.104,2.718c0.985,0.361,1.58,1.038,1.605,2.086c0.026,1.091-0.562,1.804-1.575,2.198 c0.233,0.961,0.613,1.855,1.138,2.692c0.384-0.171,0.758-0.262,1.117-0.262c0.534,0,1.035,0.202,1.485,0.64 c0.768,0.747,0.861,1.649,0.436,2.625c0.846,0.514,1.745,0.882,2.708,1.104c0.014-0.029,0.025-0.046,0.032-0.064 c0.348-0.907,1.138-1.487,2.042-1.498c0.011,0,0.021,0,0.032,0c0.952,0,1.74,0.537,2.106,1.448 c0.027,0.067,0.057,0.088,0.099,0.088c0.021,0,0.045-0.005,0.073-0.012c0.871-0.22,1.692-0.56,2.464-1.019 c0.042-0.025,0.082-0.054,0.115-0.076c-0.392-0.885-0.357-1.724,0.271-2.454c0.476-0.555,1.03-0.811,1.639-0.811 c0.355,0,0.728,0.087,1.116,0.252c0.52-0.841,0.895-1.737,1.123-2.696c-0.971-0.372-1.559-1.038-1.581-2.086 c-0.023-1.106,0.576-1.807,1.578-2.195c-0.061-0.604-0.765-2.302-1.12-2.707c-0.391,0.183-0.775,0.28-1.143,0.28 c-0.537,0-1.043-0.207-1.498-0.656c-0.779-0.77-0.841-1.69-0.388-2.673C48.516,38.101,47.61,37.725,46.641,37.5L46.641,37.5z"/><g><circle cx="44.5" cy="46.5" r="2.5" fill="#472b29"/></g></g><g><path fill="#afabd4" d="M56.673,40.003c-0.246-0.081-0.484-0.178-0.717-0.292c0.142-0.753-0.082-1.45-0.654-2.007 c-0.436-0.424-0.966-0.648-1.532-0.648c-0.149,0-0.302,0.015-0.456,0.046c-0.115-0.227-0.214-0.46-0.297-0.7 c0.652-0.439,0.994-1.101,0.975-1.916c-0.019-0.777-0.368-1.404-1-1.816c0.079-0.239,0.174-0.472,0.283-0.698 c0.161,0.034,0.32,0.05,0.477,0.05c0.583,0,1.124-0.238,1.565-0.687c0.563-0.571,0.767-1.276,0.602-2.031 c0.223-0.111,0.454-0.207,0.693-0.289c0.424,0.654,1.068,1.006,1.862,1.006c0.066,0,0.135-0.003,0.205-0.008 c0.729-0.054,1.316-0.405,1.7-1.007c0.236,0.08,0.468,0.176,0.692,0.286c-0.162,0.766,0.051,1.477,0.627,2.046 c0.439,0.434,0.974,0.663,1.545,0.663c0.16,0,0.323-0.018,0.488-0.053c0.099,0.213,0.205,0.472,0.284,0.695 c-0.66,0.437-1.008,1.102-0.99,1.922c0.016,0.767,0.358,1.392,0.98,1.809c-0.082,0.241-0.181,0.476-0.295,0.705 c-0.152-0.029-0.302-0.044-0.448-0.044c-0.644,0-1.226,0.281-1.684,0.814c-0.454,0.53-0.622,1.17-0.495,1.846 c-0.237,0.119-0.475,0.217-0.715,0.299c-0.425-0.606-1.101-0.965-1.864-0.965C57.756,39.038,57.09,39.406,56.673,40.003z"/><path fill="#472b29" d="M60.335,30.095c0.071,0.643,0.364,1.241,0.872,1.742c0.496,0.489,1.089,0.779,1.732,0.848 c-0.414,0.518-0.629,1.164-0.613,1.894c0.014,0.681,0.233,1.285,0.627,1.772c-0.729,0.078-1.383,0.434-1.904,1.042 c-0.399,0.465-0.63,1.004-0.689,1.576c-0.517-0.41-1.17-0.64-1.893-0.64c0,0,0,0-0.001,0c-0.662,0.008-1.283,0.243-1.784,0.647 c-0.07-0.657-0.37-1.267-0.892-1.773c-0.491-0.478-1.078-0.761-1.713-0.83c0.416-0.52,0.632-1.169,0.614-1.903 c-0.016-0.68-0.234-1.28-0.624-1.764c0.652-0.073,1.252-0.373,1.749-0.879c0.492-0.5,0.775-1.09,0.842-1.722 c0.498,0.401,1.117,0.616,1.815,0.616c0.084,0,0.17-0.003,0.257-0.01C59.346,30.666,59.891,30.452,60.335,30.095 M60.005,28.173 c-0.23,0.67-0.677,1.09-1.378,1.142c-0.053,0.004-0.104,0.006-0.154,0.006c-0.743,0-1.232-0.422-1.499-1.141 c-0.682,0.167-1.316,0.43-1.905,0.799c0.324,0.685,0.282,1.325-0.251,1.867c-0.322,0.328-0.682,0.478-1.067,0.478 c-0.26,0-0.532-0.068-0.811-0.197c-0.361,0.594-0.621,1.23-0.776,1.911c0.693,0.254,1.11,0.729,1.128,1.466 c0.018,0.767-0.395,1.269-1.107,1.545c0.164,0.675,0.431,1.304,0.8,1.892c0.27-0.12,0.533-0.184,0.785-0.184 c0.376,0,0.727,0.142,1.044,0.45c0.54,0.525,0.605,1.159,0.307,1.845c0.594,0.361,1.227,0.62,1.904,0.776 c0.01-0.02,0.018-0.032,0.023-0.045c0.245-0.638,0.8-1.045,1.436-1.053c0.008,0,0.015,0,0.023,0c0.669,0,1.222,0.377,1.48,1.018 c0.019,0.047,0.04,0.062,0.07,0.062c0.015,0,0.032-0.003,0.052-0.008c0.612-0.155,1.19-0.394,1.732-0.716 c0.03-0.018,0.058-0.038,0.081-0.054c-0.276-0.622-0.251-1.211,0.19-1.725c0.335-0.39,0.724-0.57,1.152-0.57 c0.249,0,0.512,0.061,0.785,0.177c0.366-0.591,0.629-1.221,0.789-1.895c-0.683-0.262-1.096-0.729-1.111-1.467 c-0.016-0.777,0.405-1.27,1.109-1.543c-0.043-0.425-0.537-1.618-0.788-1.903c-0.275,0.129-0.545,0.197-0.804,0.197 c-0.378,0-0.733-0.146-1.053-0.461c-0.548-0.541-0.591-1.188-0.273-1.879C61.323,28.596,60.686,28.331,60.005,28.173 L60.005,28.173z"/><g><circle cx="58.5" cy="34.5" r="1.5" fill="#472b29"/></g></g></svg>