<svg xmlns="http://www.w3.org/2000/svg" data-name="Layer 1" viewBox="0 0 64 64"><path fill="#ffeb9b" d="M25 1A24 24 0 1 0 25 49A24 24 0 1 0 25 1Z"/><path fill="#f6d397" d="M11.14,38.86,38.86,11.14a4,4,0,0,1,6.11.54A24,24,0,0,1,11.68,45,4,4,0,0,1,11.14,38.86Z"/><path fill="#dadcec" d="M40.78 41.46H46.32V45.46H40.78z" transform="rotate(-45 43.543 43.464)"/><rect width="8.49" height="22.51" x="48.8" y="41.79" fill="#cda1a7" rx="4" ry="4" transform="rotate(-45 53.04 53.04)"/><rect width="4.24" height="22.51" x="49.42" y="43.29" fill="#c4939c" rx="2.12" ry="2.12" transform="rotate(-45 51.542 54.54)"/><path fill="#bbdef9" d="M25 9A16 16 0 1 0 25 41A16 16 0 1 0 25 9Z"/><path fill="#8d6c9f" d="M11.89 29.91a1 1 0 0 0-1.33-.48l-1.81.84a1 1 0 0 0 .85 1.81l1.81-.84A1 1 0 0 0 11.89 29.91zM45.78 25.36l-4.07-4.07a1 1 0 0 0-1.41 0l-4.07 4.07a1 1 0 0 0 1.41 1.41L40 24.45c0 .19 0 .37 0 .55A15 15 0 0 1 20.24 39.23a1 1 0 0 0-.63 1.9A17 17 0 0 0 42 25c0-.21 0-.41 0-.62l2.4 2.4a1 1 0 0 0 1.41-1.41z"/><path fill="#8d6c9f" d="M61.88,54.46,51.54,44.12A5,5,0,0,0,48,42.66h-.07a1,1,0,0,0-.23-.37l-2.54-2.54a25,25,0,1,0-5.41,5.41l2.54,2.54a1,1,0,0,0,.37.23,5,5,0,0,0,1.45,3.6L54.46,61.88a5,5,0,0,0,7.07,0l.34-.34A5,5,0,0,0,61.88,54.46ZM25,48A23,23,0,1,1,48,25,23,23,0,0,1,25,48Zm19.12-3.54a4.94,4.94,0,0,0-.92,1.32l-1.88-1.88a25.2,25.2,0,0,0,2.59-2.59l1.87,1.87a5,5,0,0,0-1.32.92ZM60.46,60.12l-.34.34a3.07,3.07,0,0,1-4.24,0L45.54,50.12a3,3,0,0,1,0-4.24l.34-.34a3,3,0,0,1,4.24,0L60.46,55.88A3,3,0,0,1,60.46,60.12Z"/><path fill="#8d6c9f" d="M15.49 36.11l-1.15 1.64A1 1 0 0 0 16 38.89l1.15-1.64a1 1 0 0 0-1.64-1.15zM14 33.21a1 1 0 0 0-1.41-.12l-1.53 1.29a1 1 0 0 0 1.29 1.53l1.53-1.29A1 1 0 0 0 14 33.21zM33.62 12.89a1 1 0 0 0 .82-.42l1.16-1.63A1 1 0 1 0 34 9.68l-1.16 1.63a1 1 0 0 0 .81 1.58zM35.91 15.37a1 1 0 0 0 1.41.13l1.54-1.28a1 1 0 1 0-1.28-1.54L36 14A1 1 0 0 0 35.91 15.37zM38 18.68a1 1 0 0 0 1.33.49l1.82-.83a1 1 0 1 0-.83-1.82l-1.82.83A1 1 0 0 0 38 18.68zM9 27.07a1 1 0 0 0 .71-.29l4.07-4.07a1 1 0 0 0-1.41-1.41l-2.29 2.29A15 15 0 0 1 29.46 10.67a1 1 0 0 0 .59-1.91 17 17 0 0 0-22 15L5.64 21.29a1 1 0 0 0-1.41 1.41l4.07 4.07A1 1 0 0 0 9 27.07z"/><path fill="#d2edff" d="M25 18A7 7 0 1 0 25 32A7 7 0 1 0 25 18Z"/><path fill="#f3f3f3" d="M21 17A4 4 0 1 0 21 25 4 4 0 1 0 21 17zM29.5 28A1.5 1.5 0 1 0 29.5 31 1.5 1.5 0 1 0 29.5 28z"/></svg>