<svg xmlns="http://www.w3.org/2000/svg" viewBox="0 0 48 48"><path fill="#9fdadf" d="M35.542,44.01c0.593-12.664,0.841-25.345,0.744-38.022c-0.007-0.893-0.046-1.871-0.634-2.543 c-1.296-1.48-3.699-0.852-5.955-0.865c-1.929-0.011-4.179,0.28-6.108,0.295c-2.603,0.021-5.778-0.214-8.382-0.193 c-0.901,0.007-1.972,0.109-2.414,0.894c-0.199,0.353-0.22,0.776-0.236,1.181c-0.481,11.942-0.391,24.169,0.458,36.09 c0.064,0.894,0.135,1.791,0.322,2.668c0.058,0.272,0.137,0.56,0.348,0.743c0.206,0.179,0.495,0.219,0.766,0.252 c6.046,0.728,12.14,1.457,18.212,0.982c1.02-0.08,2.267-0.38,2.512-1.374"/><path fill="#cbdb2d" d="M30.512,25.07c0.017,0.019,0.037-0.18-0.013-1.724c-0.072-2.201-0.963-1.733-0.963-1.733 L28.404,21.6c0.021-0.208,0.039-0.42,0.062-0.624c-0.267-1.551-1.368-3.046-2.896-3.424c-1.528-0.378-3.252,0.225-4.212,1.473 c-0.45,0.585-1.137,1.403-1.094,2.14c0.006,0.111,0.012,0.226,0.018,0.337l-0.719-0.009C18.484,21.597,18.5,23,18.5,23 s0.109,0.813,0.141,2.344s1.048,1.192,1.048,1.192l0.835,0.001c0.006,0.134,0.013,0.272,0.019,0.405 c0.017,0.331,0.038,0.678,0.218,0.957c0.248,0.383,0.707,0.52,1.177,0.575c-0.023,1.085,0.002,2.55,0.281,2.832 c0.453,0.459,1.111,0.226,1.219-0.494c0.059-0.392,0.118-1.408,0.16-2.254c0.589,0.025,1.179,0.05,1.768,0.075v1.726 c0,0-0.071,1.136,0.75,1.092c0.821-0.045,0.752-0.655,0.719-1.091c-0.018-0.231-0.012-1.001-0.002-1.677 c0.458-0.01,0.916-0.092,1.206-0.429c0.35-0.407,0.301-1.009,0.249-1.543c-0.005-0.052-0.004-0.106-0.009-0.158 c0.372,0,0.798-0.002,1.26-0.007C30.79,26.533,30.572,25.325,30.512,25.07z"/><path fill="#4b7bb2" d="M15.987,2.675c0,0-3.348-0.084-3.429,2.082c-0.081,2.166-0.096,2.606-0.096,2.606 s7.705-0.074,11.268,0s12.677,0.305,12.677,0.305s0.518-5.284-2.999-5.186S15.987,2.675,15.987,2.675z"/><path fill="#4b7bb2" d="M13.118,40.188l22.376,0.91c0,0,1.009,4.156-2.399,4.346c-3.409,0.19-12.908-0.29-17.4-0.785 C12.261,44.281,13.404,42.288,13.118,40.188z"/><path fill="#010101" d="M36.786,5.984c-0.006-0.805-0.016-2.021-0.758-2.868c-1.151-1.315-2.98-1.201-4.753-1.097 c-0.522,0.031-1.059,0.052-1.576,0.062c-1.021-0.007-2.161,0.073-3.252,0.149c-0.965,0.068-1.962,0.139-2.862,0.146 c-1.298,0.017-2.76-0.043-4.177-0.097c-1.424-0.052-2.893-0.111-4.205-0.097c-0.661,0.005-2.209,0.017-2.845,1.148 c-0.253,0.447-0.294,0.947-0.301,1.42c-0.013,0.894-0.006,1.795-0.014,2.691c-0.006,0.032-0.018,0.062-0.018,0.096 c0,0.027,0.012,0.051,0.017,0.077c-0.087,10.723,0.174,21.582,0.444,32.119l0.029,1.127c0.024,0.904,0.136,1.833,0.333,2.76 c0.078,0.366,0.194,0.743,0.508,1.015c0.331,0.288,0.754,0.338,1.034,0.371c5.52,0.664,11.03,1.009,16.079,1.009 c0.745,0,1.479-0.008,2.203-0.022c1.017-0.021,2.83-0.426,3.171-1.808c0.008-0.032,0.013-0.064,0.014-0.097 C36.346,33.657,36.893,19.9,36.786,5.984z M13.229,3.822c0.313-0.556,1.223-0.634,1.981-0.64c0.106-0.001,0.213-0.001,0.322-0.001 c1.206,0,2.542,0.049,3.838,0.098c1.428,0.052,2.899,0.103,4.222,0.097c0.931-0.008,1.944-0.079,2.924-0.147 c1.072-0.076,2.167-0.161,3.176-0.147c0.535-0.013,1.098-0.03,1.643-0.063c1.67-0.101,3.112-0.189,3.94,0.757 c0.459,0.525,0.503,1.349,0.51,2.218c0.003,0.343,0.003,0.686,0.005,1.029C27.345,6.84,18.873,6.918,13.045,7.02 c0.007-0.751,0.001-1.506,0.012-2.255C13.062,4.425,13.086,4.075,13.229,3.822z M35.034,40.196 c-3.53-0.126-7.225-0.113-10.805-0.099c-3.561,0.015-7.234,0.028-10.735-0.098l-0.008-0.291C13.219,29.31,12.962,18.599,13.04,8.02 c5.826-0.104,14.308-0.182,22.756,0.001C35.833,19.57,35.443,30.902,35.034,40.196z M32.652,44.992 c-5.582,0.114-11.854-0.222-18.143-0.979c-0.168-0.021-0.398-0.048-0.498-0.134c-0.093-0.08-0.146-0.282-0.186-0.469 c-0.173-0.81-0.268-1.619-0.299-2.41c3.5,0.121,7.158,0.11,10.706,0.096c3.568-0.015,7.249-0.026,10.756,0.099 c-0.043,0.951-0.085,1.887-0.128,2.79C34.669,44.592,33.6,44.973,32.652,44.992z"/><path fill="#010101" d="M21.908,5.121c-0.404,0-0.803-0.005-1.195-0.017c-0.276-0.009-0.493-0.239-0.484-0.516 c0.008-0.275,0.227-0.506,0.515-0.484c1.234,0.039,2.563,0.003,3.849-0.031c1.305-0.035,2.654-0.072,3.92-0.031 c0.276,0.009,0.493,0.24,0.484,0.516s-0.249,0.472-0.515,0.484C27.244,5,25.91,5.037,24.62,5.073 C23.723,5.097,22.806,5.121,21.908,5.121z"/><path fill="#010101" d="M26.753,43.115c-0.007,0-0.014,0-0.021,0l-4.378-0.176c-0.276-0.012-0.491-0.244-0.479-0.521 c0.011-0.276,0.234-0.488,0.52-0.479l4.378,0.176c0.276,0.012,0.491,0.244,0.479,0.521C27.242,42.904,27.02,43.115,26.753,43.115z"/><path fill="#010101" d="M30.874,22.219c-0.023-0.168-0.063-0.448-0.252-0.681c-0.309-0.384-0.797-0.41-1.059-0.424 l-0.605-0.033c0.002-0.016,0.003-0.035,0.005-0.05c0.005-0.046,0.003-0.094-0.004-0.14c-0.223-1.294-0.919-2.414-1.857-3.126 c0.159-0.377,0.311-0.582,0.649-0.865c0.211-0.178,0.239-0.493,0.061-0.704c-0.176-0.211-0.492-0.24-0.705-0.062 c-0.422,0.354-0.661,0.665-0.87,1.119c-0.178-0.075-0.359-0.14-0.546-0.186c-0.941-0.233-1.949-0.122-2.848,0.249 c-0.324-0.305-0.629-0.631-0.9-0.983c-0.167-0.218-0.482-0.261-0.701-0.092c-0.219,0.168-0.261,0.481-0.092,0.701 c0.235,0.306,0.497,0.592,0.77,0.867c-0.362,0.254-0.687,0.56-0.957,0.911l-0.107,0.138c-0.462,0.594-1.081,1.399-1.086,2.23 c-0.17,0.012-0.34,0.016-0.507,0.044c-0.314,0.054-0.763,0.175-1.027,0.604c-0.15,0.244-0.191,0.515-0.211,0.746 c-0.054,0.62-0.001,1.23,0.05,1.82c0.047,0.541,0.092,1.052,0.057,1.558c-0.017,0.248-0.045,0.663,0.261,0.954 c0.225,0.214,0.5,0.225,0.634,0.229c0.086,0.003,0.173,0.004,0.261,0.004c0.251,0,0.505-0.03,0.759-0.054 c0.017,0.337,0.045,0.787,0.296,1.177c0.254,0.393,0.644,0.596,1.033,0.705c-0.028,0.81,0.068,1.614,0.301,2.395 c0.042,0.141,0.13,0.435,0.39,0.629c0.156,0.117,0.347,0.176,0.547,0.176c0.171,0,0.35-0.043,0.52-0.131 c0.495-0.254,0.82-0.801,0.894-1.5c0.024-0.225,0.024-0.451,0.022-0.678c-0.001-0.212-0.004-0.423,0.024-0.631 c0.003-0.019-0.004-0.036-0.003-0.055l0.802,0.034l0.022,1.077c0.006,0.286,0.013,0.643,0.158,0.983 c0.195,0.461,0.609,0.766,1.054,0.777c0.008,0,0.017,0,0.025,0c0.511,0,0.976-0.384,1.137-0.941 c0.105-0.363,0.072-0.718,0.034-1.128c-0.021-0.243-0.028-0.491,0.058-0.651c0.018-0.034,0.023-0.071,0.033-0.106 c0.369-0.07,0.745-0.214,1.027-0.543c0.394-0.457,0.427-1.049,0.397-1.542l1.15-0.041c0.178-0.007,0.509-0.019,0.767-0.247 c0.306-0.271,0.321-0.662,0.328-0.852C31.106,24.673,31.044,23.435,30.874,22.219z M21.645,19.472l0.11-0.142 c0.672-0.875,1.781-1.39,2.883-1.39c0.273,0,0.546,0.032,0.812,0.098c1.212,0.3,2.237,1.51,2.511,2.956 c-0.001,0.012-0.003,0.027-0.004,0.039c-2.152-0.209-4.759-0.196-7.182,0.04C20.789,20.586,21.276,19.946,21.645,19.472z M19.122,26.043c0.001-0.044,0.004-0.089,0.006-0.115c0.04-0.583-0.011-1.157-0.059-1.713c-0.05-0.572-0.097-1.112-0.05-1.646 c0.006-0.063,0.021-0.233,0.066-0.309c0.039-0.063,0.151-0.108,0.345-0.142c0.126-0.022,0.254-0.023,0.381-0.033 c0.047,0.895,0.09,1.802,0.13,2.701c0.019,0.414,0.038,0.813,0.057,1.219C19.718,26.032,19.433,26.049,19.122,26.043z M23.048,29.771c0.001,0.189,0.003,0.378-0.017,0.566c-0.029,0.272-0.138,0.604-0.348,0.778c-0.008-0.012-0.023-0.044-0.05-0.133 c-0.192-0.644-0.261-1.307-0.248-1.975l0.695,0.029C23.05,29.281,23.046,29.526,23.048,29.771z M26.305,30.733 c-0.037,0.129-0.136,0.218-0.175,0.218h0c-0.03-0.001-0.112-0.061-0.158-0.168c-0.069-0.164-0.074-0.392-0.078-0.612l-0.021-1.015 l0.461,0.02c-0.055,0.264-0.052,0.533-0.03,0.793l0.009,0.103C26.335,30.318,26.357,30.551,26.305,30.733z M27.66,27.929 c-0.22,0.257-0.715,0.276-1.214,0.25l-4.035-0.171c-0.5-0.021-1.036-0.082-1.229-0.381c-0.112-0.173-0.126-0.458-0.139-0.71 c-0.036-0.706-0.068-1.437-0.102-2.176c-0.04-0.889-0.083-1.784-0.129-2.668c2.378-0.234,4.94-0.25,7.047-0.046 c-0.135,1.471-0.223,3.156-0.068,4.733C27.839,27.26,27.863,27.692,27.66,27.929z M29.929,25.998l-1.177,0.042 c-0.077-1.336-0.009-2.722,0.105-3.962l0.651,0.035c0.236,0.013,0.314,0.038,0.333,0.052c0.019,0.031,0.035,0.149,0.042,0.193 c0.162,1.157,0.221,2.337,0.178,3.504c-0.003,0.069-0.007,0.112,0,0.128C30.019,25.995,29.957,25.997,29.929,25.998z"/><path fill="#010101" d="M23.639,20.076c-0.276,0-0.531-0.224-0.531-0.5s0.192-0.5,0.469-0.5h0.063 c0.276,0,0.5,0.224,0.5,0.5S23.916,20.076,23.639,20.076z"/><path fill="#010101" d="M25.594,20.076c-0.276,0-0.531-0.224-0.531-0.5s0.192-0.5,0.469-0.5h0.063 c0.276,0,0.5,0.224,0.5,0.5S25.871,20.076,25.594,20.076z"/></svg>