<svg xmlns="http://www.w3.org/2000/svg" viewBox="0 0 128 128"><path fill="#fff" d="M99,54c11,0,20,9,20,20s-9,20-20,20H29C18,94,9,85,9,74s9-20,20-20h5v-5c0-16.6,13.4-30,30-30s30,13.4,30,30v5H99z"/><path fill="#444b54" d="M99,97H89c-1.7,0-3-1.3-3-3s1.3-3,3-3h10c9.4,0,17-7.6,17-17s-7.6-17-17-17h-5c-1.7,0-3-1.3-3-3v-5c0-14.9-12.1-27-27-27S37,34.1,37,49v5c0,1.7-1.3,3-3,3h-5c-9.4,0-17,7.6-17,17s7.6,17,17,17h10c1.7,0,3,1.3,3,3s-1.3,3-3,3H29C16.3,97,6,86.7,6,74s10.3-23,23-23h2v-2c0-18.2,14.8-33,33-33s33,14.8,33,33v2h2c12.7,0,23,10.3,23,23S111.7,97,99,97z"/><path fill="#71c2ff" d="M64,107c-1.7,0-3-1.3-3-3V74c0-1.7,1.3-3,3-3c1.7,0,3,1.3,3,3v30C67,105.7,65.7,107,64,107z"/><path fill="#71c2ff" d="M74,87c-0.8,0-1.5-0.3-2.1-0.9L64,78.2l-7.9,7.9c-1.2,1.2-3.1,1.2-4.2,0c-1.2-1.2-1.2-3.1,0-4.2l10-10c1.2-1.2,3.1-1.2,4.2,0l10,10c1.2,1.2,1.2,3.1,0,4.2C75.5,86.7,74.8,87,74,87z"/></svg>