<svg xmlns="http://www.w3.org/2000/svg" data-name="Layer 1" viewBox="0 0 64 64"><path fill="#ed7899" d="M63,49.44V53a2,2,0,0,1-2,2H51l-.5-5.81L39.38,38.38l3.73-7.26L58.43,41A10,10,0,0,1,63,49.44Z"/><path fill="#f9e3ae" d="M35.73,7.7c4.43-2,7.18,0,7.18,0A9.54,9.54,0,0,1,50,10.08,14.35,14.35,0,0,1,55.08,19,77.34,77.34,0,0,0,58,28.33l2,3.33v1.67l-9,2.93L47.17,34,35.42,35.17,36.05,8"/><path fill="#8d6c9f" d="M54 52a1 1 0 0 1-1-1V49a1 1 0 0 1 2 0v2A1 1 0 0 1 54 52zM59 52a1 1 0 0 1-1-1V49a1 1 0 0 1 2 0v2A1 1 0 0 1 59 52z"/><path fill="#c2cde7" d="M45,41.53,32,34H20L7,41.53A12,12,0,0,0,1,51.92V59a2,2,0,0,0,2,2H49a2,2,0,0,0,2-2V51.92A12,12,0,0,0,45,41.53Z"/><path fill="#faefde" d="M38.44,17.63c2,.88,4.62,1.94,11.56,1.75l1.56,4.13v3.94l-2.42,3.41L45,35.56s-3.62,2.5-5.62,2.81-4.71-2.83-4.71-2.83Z"/><path fill="#d6dff2" d="M36.28,41.86,26,47,15.72,41.86a3,3,0,0,1-.78-4.8L15,37H37l.06.06A3,3,0,0,1,36.28,41.86Z"/><path fill="#acb7d0" d="M47,56H5a4,4,0,0,0-4,4H1a1,1,0,0,0,1,1H50a1,1,0,0,0,1-1h0A4,4,0,0,0,47,56Z"/><path fill="#faefde" d="M40,21.14a1.33,1.33,0,0,0-1.07.25A13.16,13.16,0,0,0,38,17c-.92-2.51,2.66-1,2.66-1C39.3,9.71,34.75,5,27,5H26a13.17,13.17,0,0,0-7,2h0c-3.31,0-5.62,2.25-6,6s.36,5.92.22,6.71A13.2,13.2,0,0,0,13,21.39,1.33,1.33,0,0,0,12,21.14c-1.07.29-1.47,2.25-.9,4.38.52,2,1.69,3.36,2.7,3.36C15.57,35,20.37,41,26,41s10.43-6,12.23-12.12c1,0,2.17-1.4,2.7-3.36C41.5,23.38,41.1,21.42,40,21.14Z"/><path fill="#cda1a7" d="M13.51,18a7.47,7.47,0,0,0,6.55-5c3,1,4,4,18,3,1.39-.1,1.6.39,2,0s-.72-2,0-1.93C38.17,8.28,33.53,5,27.12,5H26.06a12.77,12.77,0,0,0-6.75,1.9,1.06,1.06,0,0,1-.63.21c-3,0-5,2-5.31,5.39a22.42,22.42,0,0,0,.13,5.44Z"/><path fill="#8d6c9f" d="M59,40.2,53.06,36.4a47.66,47.66,0,0,0,7-2.4,2,2,0,0,0,.86-2.92L59.2,28.46a13.92,13.92,0,0,1-1.92-4.52l-1.7-7.41a13,13,0,0,0-11.83-10,4.81,4.81,0,0,0-2.63-.78,14.16,14.16,0,0,0-5.39.82A15.22,15.22,0,0,0,27,4H26a14.58,14.58,0,0,0-7.31,2C15,6.14,12.42,8.76,12,12.9a22.91,22.91,0,0,0,.14,5.6,7.64,7.64,0,0,1,.09,1l-.09.57a1.78,1.78,0,0,0-.43.06,2.67,2.67,0,0,0-1.79,2.26,7.6,7.6,0,0,0,.18,3.35c.54,2,1.66,3.49,2.89,4a23,23,0,0,0,2.72,5.6L6.49,40.67A13,13,0,0,0,0,51.92V59a3,3,0,0,0,3,3H49a3,3,0,0,0,3-3V56h9a3,3,0,0,0,3-3V49.44A11,11,0,0,0,59,40.2ZM14.73,28.6a1,1,0,0,0-1-.72c-.3,0-1.24-.78-1.74-2.62a5.73,5.73,0,0,1-.15-2.43c.11-.51.29-.71.34-.73a.87.87,0,0,1,.27.12,1,1,0,0,0,1,.06,1,1,0,0,0,.54-.85,11.15,11.15,0,0,1,.17-1.54,5.71,5.71,0,0,0-.08-1.64A21.09,21.09,0,0,1,14,13.1C14.31,9.91,16.19,8,19,8a1,1,0,0,0,.6-.2A12,12,0,0,1,26,6h1c6.07,0,10.45,3.1,12.25,8.58a2.32,2.32,0,0,0-1.9.48,2,2,0,0,0-.28,2.3,12.43,12.43,0,0,1,.9,4.07,1,1,0,0,0,.54.85,1,1,0,0,0,1-.06,1.11,1.11,0,0,1,.27-.12,1.19,1.19,0,0,1,.34.73A5.73,5.73,0,0,1,40,25.26a5.47,5.47,0,0,1-.95,2c-.33.42-.64.62-.79.62a1,1,0,0,0-1,.72,21,21,0,0,1-2.7,5.73,15.73,15.73,0,0,1-1.21,1.61C31.34,38.35,28.78,40,26,40s-5.34-1.65-7.36-4.06a15.73,15.73,0,0,1-1.21-1.61A21,21,0,0,1,14.73,28.6ZM50,59a1,1,0,0,1-1,1H3a1,1,0,0,1-1-1V51.92A11,11,0,0,1,7.49,42.4l9.42-5.46C19.33,39.91,22.5,42,26,42s6.67-2.09,9.09-5.06l9.42,5.46A11,11,0,0,1,50,51.92Zm12-6a1,1,0,0,1-1,1H52V51.92a13,13,0,0,0-6.49-11.25l-9.22-5.34A23,23,0,0,0,39,29.73c1.23-.46,2.35-2,2.89-4a7.6,7.6,0,0,0,.18-3.35,2.67,2.67,0,0,0-1.79-2.26,1.71,1.71,0,0,0-.43-.06,15.05,15.05,0,0,0-.92-3.44l0-.11a5.43,5.43,0,0,1,1.38.36,1,1,0,0,0,1.36-1.13A15.35,15.35,0,0,0,37.55,8a14.9,14.9,0,0,1,3.57-.32,2.85,2.85,0,0,1,1.7.57,1,1,0,0,0,.56.2A11,11,0,0,1,53.63,17l1.7,7.41a15.89,15.89,0,0,0,2.2,5.17l1.72,2.62a42.46,42.46,0,0,1-8.57,2.7l-2.07-1.33a12.28,12.28,0,0,0,2.15-4,2.07,2.07,0,0,1,.69-.83,4.57,4.57,0,0,0,1.46-3.1,4,4,0,0,0-1-3.42c-.24-.22-.28-.34-.29-.4l0-.24a15,15,0,0,0-.4-2.42,1,1,0,0,0-1-.7h-1.9A26.3,26.3,0,0,1,44,18a1,1,0,1,0-.36,2,28.15,28.15,0,0,0,4.74.46h1.12c.07.46.13,1,.17,1.34l0,.24a2.61,2.61,0,0,0,.93,1.64,2.32,2.32,0,0,1,.33,1.77,2.64,2.64,0,0,1-.72,1.72,4,4,0,0,0-1.3,1.69C48,31.3,47.11,33,43.29,35a1,1,0,1,0,.92,1.77A17.64,17.64,0,0,0,47.12,35l10.77,6.93A9,9,0,0,1,62,49.44Z"/><path fill="#8d6c9f" d="M33.55 42.11L26 45.88l-7.55-3.78a1 1 0 0 0-.89 1.79l8 4a1 1 0 0 0 .89 0l8-4a1 1 0 1 0-.89-1.79zM41 54a1 1 0 0 0-1 1v2a1 1 0 0 0 2 0V55A1 1 0 0 0 41 54zM46 54a1 1 0 0 0-1 1v2a1 1 0 0 0 2 0V55A1 1 0 0 0 46 54zM36 54a1 1 0 0 0-1 1v2a1 1 0 0 0 2 0V55A1 1 0 0 0 36 54zM31 54a1 1 0 0 0-1 1v2a1 1 0 0 0 2 0V55A1 1 0 0 0 31 54zM26 54a1 1 0 0 0-1 1v2a1 1 0 0 0 2 0V55A1 1 0 0 0 26 54zM21 54a1 1 0 0 0-1 1v2a1 1 0 0 0 2 0V55A1 1 0 0 0 21 54zM16 54a1 1 0 0 0-1 1v2a1 1 0 0 0 2 0V55A1 1 0 0 0 16 54zM11 54a1 1 0 0 0-1 1v2a1 1 0 0 0 2 0V55A1 1 0 0 0 11 54zM6 54a1 1 0 0 0-1 1v2a1 1 0 0 0 2 0V55A1 1 0 0 0 6 54zM17.91 17a1 1 0 0 1-.83-1.55L18.68 13a2 2 0 0 1 2.55-.7l1.56.76A19.1 19.1 0 0 0 31.11 15h2.55a1 1 0 0 1 0 2H31.11a21.1 21.1 0 0 1-9.2-2.12l-1.56-.76-1.6 2.43A1 1 0 0 1 17.91 17z"/></svg>